<mxfile host="www.draw.io" modified="2019-11-15T07:43:25.192Z" agent="Mozilla/5.0 (Windows NT 10.0; Win64; x64) AppleWebKit/537.36 (KHTML, like Gecko) Chrome/78.0.3904.97 Safari/537.36" etag="rbNEfhV80LUwqmTaf3ui" version="12.2.6" type="github" pages="1">
  <diagram id="07fea595-8f29-1299-0266-81d95cde20df" name="Page-1">
    <mxGraphModel dx="-1023" dy="820" grid="1" gridSize="10" guides="1" tooltips="1" connect="1" arrows="1" fold="1" page="1" pageScale="1" pageWidth="1169" pageHeight="827" background="#ffffff" math="0" shadow="0">
      <root>
        <mxCell id="0"/>
        <mxCell id="1" parent="0"/>
        <mxCell id="Wl3PlyjCfCqaFqwn1Miz-761" value="" style="rounded=1;whiteSpace=wrap;html=1;dashed=1;" vertex="1" parent="1">
          <mxGeometry x="2354" y="950" width="1096" height="410" as="geometry"/>
        </mxCell>
        <mxCell id="723" value="" style="whiteSpace=wrap;fillColor=#12AAB5;gradientColor=none;gradientDirection=east;strokeColor=none;html=1;fontColor=#23445d;" parent="1" vertex="1">
          <mxGeometry x="2408" y="1145" width="12" height="130" as="geometry"/>
        </mxCell>
        <mxCell id="739" value="" style="whiteSpace=wrap;fillColor=#12AAB5;gradientColor=none;gradientDirection=east;strokeColor=none;html=1;fontColor=#23445d;" parent="1" vertex="1">
          <mxGeometry x="2408" y="1316.5" width="12" height="6" as="geometry"/>
        </mxCell>
        <mxCell id="744" value="Request count" style="text;spacingTop=-5;html=1;points=[];fontSize=10;" parent="1" vertex="1">
          <mxGeometry x="2420" y="1309.5" width="80" height="20" as="geometry"/>
        </mxCell>
        <mxCell id="749" value="Mid Layer Monitor Dashboard" style="text;spacingTop=-5;align=center;verticalAlign=middle;fontSize=30;fontStyle=1;html=1;points=[]" parent="1" vertex="1">
          <mxGeometry x="3060" y="720" width="810" height="45" as="geometry"/>
        </mxCell>
        <mxCell id="o6w3HR38CNkeLtD_eccx-752" value="" style="whiteSpace=wrap;fillColor=#12AAB5;gradientColor=none;gradientDirection=east;strokeColor=none;html=1;fontColor=#23445d;" parent="1" vertex="1">
          <mxGeometry x="2420" y="1204.5" width="12" height="70" as="geometry"/>
        </mxCell>
        <mxCell id="o6w3HR38CNkeLtD_eccx-753" value="" style="whiteSpace=wrap;fillColor=#12AAB5;gradientColor=none;gradientDirection=east;strokeColor=none;html=1;fontColor=#23445d;" parent="1" vertex="1">
          <mxGeometry x="2516" y="1100.5" width="12" height="174" as="geometry"/>
        </mxCell>
        <mxCell id="o6w3HR38CNkeLtD_eccx-754" value="" style="whiteSpace=wrap;fillColor=#12AAB5;gradientColor=none;gradientDirection=east;strokeColor=none;html=1;fontColor=#23445d;" parent="1" vertex="1">
          <mxGeometry x="2432" y="1159.5" width="12" height="115" as="geometry"/>
        </mxCell>
        <mxCell id="o6w3HR38CNkeLtD_eccx-755" value="" style="whiteSpace=wrap;fillColor=#12AAB5;gradientColor=none;gradientDirection=east;strokeColor=none;html=1;fontColor=#23445d;" parent="1" vertex="1">
          <mxGeometry x="2444" y="1169.5" width="12" height="104" as="geometry"/>
        </mxCell>
        <mxCell id="o6w3HR38CNkeLtD_eccx-756" value="" style="whiteSpace=wrap;fillColor=#12AAB5;gradientColor=none;gradientDirection=east;strokeColor=none;html=1;fontColor=#23445d;" parent="1" vertex="1">
          <mxGeometry x="2456" y="1194.5" width="12" height="80" as="geometry"/>
        </mxCell>
        <mxCell id="o6w3HR38CNkeLtD_eccx-757" value="" style="whiteSpace=wrap;fillColor=#12AAB5;gradientColor=none;gradientDirection=east;strokeColor=none;html=1;fontColor=#23445d;" parent="1" vertex="1">
          <mxGeometry x="2468" y="1144.5" width="12" height="130" as="geometry"/>
        </mxCell>
        <mxCell id="o6w3HR38CNkeLtD_eccx-758" value="" style="whiteSpace=wrap;fillColor=#12AAB5;gradientColor=none;gradientDirection=east;strokeColor=none;html=1;fontColor=#23445d;" parent="1" vertex="1">
          <mxGeometry x="2480" y="1160.5" width="12" height="114" as="geometry"/>
        </mxCell>
        <mxCell id="o6w3HR38CNkeLtD_eccx-759" value="" style="whiteSpace=wrap;fillColor=#12AAB5;gradientColor=none;gradientDirection=east;strokeColor=none;html=1;fontColor=#23445d;" parent="1" vertex="1">
          <mxGeometry x="2492" y="1220.5" width="12" height="54" as="geometry"/>
        </mxCell>
        <mxCell id="o6w3HR38CNkeLtD_eccx-760" value="" style="whiteSpace=wrap;fillColor=#12AAB5;gradientColor=none;gradientDirection=east;strokeColor=none;html=1;fontColor=#23445d;" parent="1" vertex="1">
          <mxGeometry x="2504" y="1190.5" width="12" height="84" as="geometry"/>
        </mxCell>
        <mxCell id="o6w3HR38CNkeLtD_eccx-762" value="" style="whiteSpace=wrap;fillColor=#12AAB5;gradientColor=none;gradientDirection=east;strokeColor=none;html=1;fontColor=#23445d;" parent="1" vertex="1">
          <mxGeometry x="2528" y="1120.5" width="12" height="154" as="geometry"/>
        </mxCell>
        <mxCell id="o6w3HR38CNkeLtD_eccx-763" value="" style="whiteSpace=wrap;fillColor=#12AAB5;gradientColor=none;gradientDirection=east;strokeColor=none;html=1;fontColor=#23445d;" parent="1" vertex="1">
          <mxGeometry x="2540" y="1130.5" width="12" height="144" as="geometry"/>
        </mxCell>
        <mxCell id="o6w3HR38CNkeLtD_eccx-764" value="" style="whiteSpace=wrap;fillColor=#12AAB5;gradientColor=none;gradientDirection=east;strokeColor=none;html=1;fontColor=#23445d;" parent="1" vertex="1">
          <mxGeometry x="2636" y="1180.5" width="12" height="94" as="geometry"/>
        </mxCell>
        <mxCell id="o6w3HR38CNkeLtD_eccx-765" value="" style="whiteSpace=wrap;fillColor=#12AAB5;gradientColor=none;gradientDirection=east;strokeColor=none;html=1;fontColor=#23445d;" parent="1" vertex="1">
          <mxGeometry x="2552" y="1144" width="12" height="130" as="geometry"/>
        </mxCell>
        <mxCell id="o6w3HR38CNkeLtD_eccx-766" value="" style="whiteSpace=wrap;fillColor=#12AAB5;gradientColor=none;gradientDirection=east;strokeColor=none;html=1;fontColor=#23445d;" parent="1" vertex="1">
          <mxGeometry x="2564" y="1168" width="12" height="106" as="geometry"/>
        </mxCell>
        <mxCell id="o6w3HR38CNkeLtD_eccx-767" value="" style="whiteSpace=wrap;fillColor=#12AAB5;gradientColor=none;gradientDirection=east;strokeColor=none;html=1;fontColor=#23445d;" parent="1" vertex="1">
          <mxGeometry x="2576" y="1194.5" width="12" height="80" as="geometry"/>
        </mxCell>
        <mxCell id="o6w3HR38CNkeLtD_eccx-768" value="" style="whiteSpace=wrap;fillColor=#12AAB5;gradientColor=none;gradientDirection=east;strokeColor=none;html=1;fontColor=#23445d;" parent="1" vertex="1">
          <mxGeometry x="2588" y="1144.5" width="12" height="130" as="geometry"/>
        </mxCell>
        <mxCell id="o6w3HR38CNkeLtD_eccx-769" value="" style="whiteSpace=wrap;fillColor=#12AAB5;gradientColor=none;gradientDirection=east;strokeColor=none;html=1;fontColor=#23445d;" parent="1" vertex="1">
          <mxGeometry x="2600" y="1180.5" width="12" height="94" as="geometry"/>
        </mxCell>
        <mxCell id="o6w3HR38CNkeLtD_eccx-770" value="" style="whiteSpace=wrap;fillColor=#12AAB5;gradientColor=none;gradientDirection=east;strokeColor=none;html=1;fontColor=#23445d;" parent="1" vertex="1">
          <mxGeometry x="2612" y="1130.5" width="12" height="144" as="geometry"/>
        </mxCell>
        <mxCell id="o6w3HR38CNkeLtD_eccx-771" value="" style="whiteSpace=wrap;fillColor=#12AAB5;gradientColor=none;gradientDirection=east;strokeColor=none;html=1;fontColor=#23445d;" parent="1" vertex="1">
          <mxGeometry x="2624" y="1150.5" width="12" height="124" as="geometry"/>
        </mxCell>
        <mxCell id="o6w3HR38CNkeLtD_eccx-772" value="" style="endArrow=none;html=1;strokeWidth=1;" parent="1" edge="1">
          <mxGeometry width="50" height="50" relative="1" as="geometry">
            <mxPoint x="2408" y="1273.5" as="sourcePoint"/>
            <mxPoint x="2408" y="1073.5" as="targetPoint"/>
          </mxGeometry>
        </mxCell>
        <mxCell id="o6w3HR38CNkeLtD_eccx-783" value="" style="endArrow=none;html=1;strokeWidth=1;" parent="1" edge="1">
          <mxGeometry width="50" height="50" relative="1" as="geometry">
            <mxPoint x="2407" y="1274" as="sourcePoint"/>
            <mxPoint x="2648" y="1274.5" as="targetPoint"/>
          </mxGeometry>
        </mxCell>
        <mxCell id="o6w3HR38CNkeLtD_eccx-785" value="" style="endArrow=none;html=1;strokeWidth=1;entryX=1.125;entryY=0.214;entryDx=0;entryDy=0;entryPerimeter=0;strokeColor=#FFB570;" parent="1" target="o6w3HR38CNkeLtD_eccx-764" edge="1">
          <mxGeometry width="50" height="50" relative="1" as="geometry">
            <mxPoint x="2408" y="1222" as="sourcePoint"/>
            <mxPoint x="2598" y="1222" as="targetPoint"/>
            <Array as="points">
              <mxPoint x="2438" y="1222"/>
              <mxPoint x="2458" y="1202"/>
              <mxPoint x="2488" y="1212"/>
              <mxPoint x="2518" y="1232"/>
              <mxPoint x="2548" y="1212"/>
              <mxPoint x="2589" y="1190.5"/>
            </Array>
          </mxGeometry>
        </mxCell>
        <mxCell id="o6w3HR38CNkeLtD_eccx-787" value="" style="endArrow=none;html=1;strokeWidth=1;" parent="1" edge="1">
          <mxGeometry width="50" height="50" relative="1" as="geometry">
            <mxPoint x="2397" y="1234.5" as="sourcePoint"/>
            <mxPoint x="2408" y="1234.5" as="targetPoint"/>
          </mxGeometry>
        </mxCell>
        <mxCell id="o6w3HR38CNkeLtD_eccx-789" value="" style="endArrow=none;html=1;strokeWidth=1;" parent="1" edge="1">
          <mxGeometry width="50" height="50" relative="1" as="geometry">
            <mxPoint x="2397" y="1194.5" as="sourcePoint"/>
            <mxPoint x="2408" y="1194.5" as="targetPoint"/>
          </mxGeometry>
        </mxCell>
        <mxCell id="o6w3HR38CNkeLtD_eccx-790" value="" style="endArrow=none;html=1;strokeWidth=1;" parent="1" edge="1">
          <mxGeometry width="50" height="50" relative="1" as="geometry">
            <mxPoint x="2397" y="1153.5" as="sourcePoint"/>
            <mxPoint x="2408" y="1153.5" as="targetPoint"/>
          </mxGeometry>
        </mxCell>
        <mxCell id="o6w3HR38CNkeLtD_eccx-791" value="" style="endArrow=none;html=1;strokeWidth=1;" parent="1" edge="1">
          <mxGeometry width="50" height="50" relative="1" as="geometry">
            <mxPoint x="2647" y="1274.5" as="sourcePoint"/>
            <mxPoint x="2648" y="1073.5" as="targetPoint"/>
          </mxGeometry>
        </mxCell>
        <mxCell id="o6w3HR38CNkeLtD_eccx-792" value="" style="endArrow=none;html=1;strokeWidth=1;" parent="1" edge="1">
          <mxGeometry width="50" height="50" relative="1" as="geometry">
            <mxPoint x="2647" y="1263.5" as="sourcePoint"/>
            <mxPoint x="2658" y="1263.5" as="targetPoint"/>
          </mxGeometry>
        </mxCell>
        <mxCell id="o6w3HR38CNkeLtD_eccx-793" value="" style="endArrow=none;html=1;strokeWidth=1;" parent="1" edge="1">
          <mxGeometry width="50" height="50" relative="1" as="geometry">
            <mxPoint x="2648" y="1194.5" as="sourcePoint"/>
            <mxPoint x="2659" y="1194.5" as="targetPoint"/>
          </mxGeometry>
        </mxCell>
        <mxCell id="o6w3HR38CNkeLtD_eccx-794" value="" style="endArrow=none;html=1;strokeWidth=1;" parent="1" edge="1">
          <mxGeometry width="50" height="50" relative="1" as="geometry">
            <mxPoint x="2647" y="1203.5" as="sourcePoint"/>
            <mxPoint x="2658" y="1203.5" as="targetPoint"/>
          </mxGeometry>
        </mxCell>
        <mxCell id="o6w3HR38CNkeLtD_eccx-795" value="" style="endArrow=none;html=1;strokeWidth=1;" parent="1" edge="1">
          <mxGeometry width="50" height="50" relative="1" as="geometry">
            <mxPoint x="2647" y="1213.5" as="sourcePoint"/>
            <mxPoint x="2658" y="1213.5" as="targetPoint"/>
          </mxGeometry>
        </mxCell>
        <mxCell id="o6w3HR38CNkeLtD_eccx-796" value="" style="endArrow=none;html=1;strokeWidth=1;" parent="1" edge="1">
          <mxGeometry width="50" height="50" relative="1" as="geometry">
            <mxPoint x="2647" y="1223.5" as="sourcePoint"/>
            <mxPoint x="2658" y="1223.5" as="targetPoint"/>
          </mxGeometry>
        </mxCell>
        <mxCell id="o6w3HR38CNkeLtD_eccx-797" value="" style="endArrow=none;html=1;strokeWidth=1;" parent="1" edge="1">
          <mxGeometry width="50" height="50" relative="1" as="geometry">
            <mxPoint x="2647" y="1234.5" as="sourcePoint"/>
            <mxPoint x="2658" y="1234.5" as="targetPoint"/>
          </mxGeometry>
        </mxCell>
        <mxCell id="o6w3HR38CNkeLtD_eccx-798" value="" style="endArrow=none;html=1;strokeWidth=1;" parent="1" edge="1">
          <mxGeometry width="50" height="50" relative="1" as="geometry">
            <mxPoint x="2647" y="1243.5" as="sourcePoint"/>
            <mxPoint x="2658" y="1243.5" as="targetPoint"/>
          </mxGeometry>
        </mxCell>
        <mxCell id="o6w3HR38CNkeLtD_eccx-799" value="" style="endArrow=none;html=1;strokeWidth=1;" parent="1" edge="1">
          <mxGeometry width="50" height="50" relative="1" as="geometry">
            <mxPoint x="2647" y="1253.5" as="sourcePoint"/>
            <mxPoint x="2658" y="1253.5" as="targetPoint"/>
          </mxGeometry>
        </mxCell>
        <mxCell id="o6w3HR38CNkeLtD_eccx-800" value="" style="endArrow=none;html=1;strokeWidth=1;" parent="1" edge="1">
          <mxGeometry width="50" height="50" relative="1" as="geometry">
            <mxPoint x="2648" y="1185.5" as="sourcePoint"/>
            <mxPoint x="2659" y="1185.5" as="targetPoint"/>
          </mxGeometry>
        </mxCell>
        <mxCell id="o6w3HR38CNkeLtD_eccx-801" value="" style="endArrow=none;html=1;strokeWidth=1;" parent="1" edge="1">
          <mxGeometry width="50" height="50" relative="1" as="geometry">
            <mxPoint x="2648" y="1115.5" as="sourcePoint"/>
            <mxPoint x="2659" y="1115.5" as="targetPoint"/>
          </mxGeometry>
        </mxCell>
        <mxCell id="o6w3HR38CNkeLtD_eccx-802" value="" style="endArrow=none;html=1;strokeWidth=1;" parent="1" edge="1">
          <mxGeometry width="50" height="50" relative="1" as="geometry">
            <mxPoint x="2648" y="1125.5" as="sourcePoint"/>
            <mxPoint x="2659" y="1125.5" as="targetPoint"/>
          </mxGeometry>
        </mxCell>
        <mxCell id="o6w3HR38CNkeLtD_eccx-803" value="" style="endArrow=none;html=1;strokeWidth=1;" parent="1" edge="1">
          <mxGeometry width="50" height="50" relative="1" as="geometry">
            <mxPoint x="2648" y="1135.5" as="sourcePoint"/>
            <mxPoint x="2659" y="1135.5" as="targetPoint"/>
          </mxGeometry>
        </mxCell>
        <mxCell id="o6w3HR38CNkeLtD_eccx-804" value="" style="endArrow=none;html=1;strokeWidth=1;" parent="1" edge="1">
          <mxGeometry width="50" height="50" relative="1" as="geometry">
            <mxPoint x="2648" y="1145.5" as="sourcePoint"/>
            <mxPoint x="2659" y="1145.5" as="targetPoint"/>
          </mxGeometry>
        </mxCell>
        <mxCell id="o6w3HR38CNkeLtD_eccx-805" value="" style="endArrow=none;html=1;strokeWidth=1;" parent="1" edge="1">
          <mxGeometry width="50" height="50" relative="1" as="geometry">
            <mxPoint x="2648" y="1156.5" as="sourcePoint"/>
            <mxPoint x="2659" y="1156.5" as="targetPoint"/>
          </mxGeometry>
        </mxCell>
        <mxCell id="o6w3HR38CNkeLtD_eccx-806" value="" style="endArrow=none;html=1;strokeWidth=1;" parent="1" edge="1">
          <mxGeometry width="50" height="50" relative="1" as="geometry">
            <mxPoint x="2648" y="1165.5" as="sourcePoint"/>
            <mxPoint x="2659" y="1165.5" as="targetPoint"/>
          </mxGeometry>
        </mxCell>
        <mxCell id="o6w3HR38CNkeLtD_eccx-807" value="" style="endArrow=none;html=1;strokeWidth=1;" parent="1" edge="1">
          <mxGeometry width="50" height="50" relative="1" as="geometry">
            <mxPoint x="2648" y="1175.5" as="sourcePoint"/>
            <mxPoint x="2659" y="1175.5" as="targetPoint"/>
          </mxGeometry>
        </mxCell>
        <mxCell id="o6w3HR38CNkeLtD_eccx-808" value="" style="endArrow=none;html=1;strokeWidth=1;" parent="1" edge="1">
          <mxGeometry width="50" height="50" relative="1" as="geometry">
            <mxPoint x="2648" y="1103.5" as="sourcePoint"/>
            <mxPoint x="2659" y="1103.5" as="targetPoint"/>
          </mxGeometry>
        </mxCell>
        <mxCell id="o6w3HR38CNkeLtD_eccx-813" value="" style="endArrow=none;html=1;strokeWidth=1;" parent="1" edge="1">
          <mxGeometry width="50" height="50" relative="1" as="geometry">
            <mxPoint x="2648" y="1074.5" as="sourcePoint"/>
            <mxPoint x="2659" y="1074.5" as="targetPoint"/>
          </mxGeometry>
        </mxCell>
        <mxCell id="o6w3HR38CNkeLtD_eccx-814" value="" style="endArrow=none;html=1;strokeWidth=1;" parent="1" edge="1">
          <mxGeometry width="50" height="50" relative="1" as="geometry">
            <mxPoint x="2648" y="1083.5" as="sourcePoint"/>
            <mxPoint x="2659" y="1083.5" as="targetPoint"/>
          </mxGeometry>
        </mxCell>
        <mxCell id="o6w3HR38CNkeLtD_eccx-815" value="" style="endArrow=none;html=1;strokeWidth=1;" parent="1" edge="1">
          <mxGeometry width="50" height="50" relative="1" as="geometry">
            <mxPoint x="2648" y="1093.5" as="sourcePoint"/>
            <mxPoint x="2659" y="1093.5" as="targetPoint"/>
          </mxGeometry>
        </mxCell>
        <mxCell id="o6w3HR38CNkeLtD_eccx-816" value="" style="endArrow=none;html=1;strokeWidth=1;" parent="1" edge="1">
          <mxGeometry width="50" height="50" relative="1" as="geometry">
            <mxPoint x="2397" y="1115.5" as="sourcePoint"/>
            <mxPoint x="2408" y="1115.5" as="targetPoint"/>
          </mxGeometry>
        </mxCell>
        <mxCell id="o6w3HR38CNkeLtD_eccx-817" value="" style="endArrow=none;html=1;strokeWidth=1;" parent="1" edge="1">
          <mxGeometry width="50" height="50" relative="1" as="geometry">
            <mxPoint x="2398" y="1073.5" as="sourcePoint"/>
            <mxPoint x="2409" y="1073.5" as="targetPoint"/>
          </mxGeometry>
        </mxCell>
        <mxCell id="o6w3HR38CNkeLtD_eccx-818" value="&lt;font style=&quot;font-size: 8px;&quot;&gt;1000&lt;/font&gt;" style="text;html=1;align=center;verticalAlign=middle;whiteSpace=wrap;rounded=0;fontSize=8;" parent="1" vertex="1">
          <mxGeometry x="2370" y="1303" width="40" height="20" as="geometry"/>
        </mxCell>
        <mxCell id="o6w3HR38CNkeLtD_eccx-819" value="&lt;font style=&quot;font-size: 8px&quot;&gt;2000&lt;/font&gt;" style="text;html=1;align=center;verticalAlign=middle;whiteSpace=wrap;rounded=0;fontSize=8;" parent="1" vertex="1">
          <mxGeometry x="2370" y="1265" width="40" height="20" as="geometry"/>
        </mxCell>
        <mxCell id="o6w3HR38CNkeLtD_eccx-820" value="&lt;font style=&quot;font-size: 8px&quot;&gt;3000&lt;/font&gt;" style="text;html=1;align=center;verticalAlign=middle;whiteSpace=wrap;rounded=0;fontSize=8;" parent="1" vertex="1">
          <mxGeometry x="2370" y="1221" width="40" height="20" as="geometry"/>
        </mxCell>
        <mxCell id="o6w3HR38CNkeLtD_eccx-821" value="&lt;font style=&quot;font-size: 8px&quot;&gt;4000&lt;/font&gt;" style="text;html=1;align=center;verticalAlign=middle;whiteSpace=wrap;rounded=0;fontSize=8;" parent="1" vertex="1">
          <mxGeometry x="2370" y="1184" width="40" height="20" as="geometry"/>
        </mxCell>
        <mxCell id="o6w3HR38CNkeLtD_eccx-822" value="&lt;font style=&quot;font-size: 8px&quot;&gt;5000&lt;/font&gt;" style="text;html=1;align=center;verticalAlign=middle;whiteSpace=wrap;rounded=0;fontSize=8;" parent="1" vertex="1">
          <mxGeometry x="2370" y="1144" width="40" height="20" as="geometry"/>
        </mxCell>
        <mxCell id="o6w3HR38CNkeLtD_eccx-823" value="&lt;font style=&quot;font-size: 8px&quot;&gt;100&lt;/font&gt;" style="text;html=1;align=center;verticalAlign=middle;whiteSpace=wrap;rounded=0;fontSize=8;" parent="1" vertex="1">
          <mxGeometry x="2659" y="1103.5" width="20" height="20" as="geometry"/>
        </mxCell>
        <mxCell id="o6w3HR38CNkeLtD_eccx-824" value="&lt;font style=&quot;font-size: 8px&quot;&gt;50&lt;/font&gt;" style="text;html=1;align=center;verticalAlign=middle;whiteSpace=wrap;rounded=0;fontSize=8;" parent="1" vertex="1">
          <mxGeometry x="2659" y="1184.5" width="20" height="20" as="geometry"/>
        </mxCell>
        <mxCell id="o6w3HR38CNkeLtD_eccx-825" value="Gateway Service" style="text;html=1;strokeColor=none;fillColor=none;align=center;verticalAlign=middle;whiteSpace=wrap;rounded=0;fontSize=8;fontColor=#000099;" parent="1" vertex="1">
          <mxGeometry x="2469" y="1043.5" width="107" height="20" as="geometry"/>
        </mxCell>
        <mxCell id="o6w3HR38CNkeLtD_eccx-827" value="" style="whiteSpace=wrap;fillColor=#FFB570;gradientColor=none;gradientDirection=east;strokeColor=none;html=1;fontColor=#23445d;" parent="1" vertex="1">
          <mxGeometry x="2408" y="1333" width="12" height="6" as="geometry"/>
        </mxCell>
        <mxCell id="o6w3HR38CNkeLtD_eccx-828" value="Response time" style="text;spacingTop=-5;html=1;points=[];fontSize=10;" parent="1" vertex="1">
          <mxGeometry x="2420" y="1326" width="80" height="20" as="geometry"/>
        </mxCell>
        <mxCell id="o6w3HR38CNkeLtD_eccx-833" value="" style="endArrow=none;html=1;strokeWidth=1;entryX=1.125;entryY=0.214;entryDx=0;entryDy=0;entryPerimeter=0;strokeColor=#FFB570;" parent="1" edge="1">
          <mxGeometry width="50" height="50" relative="1" as="geometry">
            <mxPoint x="2759" y="1177.5" as="sourcePoint"/>
            <mxPoint x="3000.5" y="1156.116" as="targetPoint"/>
            <Array as="points">
              <mxPoint x="2789" y="1177.5"/>
              <mxPoint x="2809" y="1157.5"/>
              <mxPoint x="2839" y="1167.5"/>
              <mxPoint x="2869" y="1187.5"/>
              <mxPoint x="2899" y="1167.5"/>
              <mxPoint x="2940" y="1146"/>
            </Array>
          </mxGeometry>
        </mxCell>
        <mxCell id="o6w3HR38CNkeLtD_eccx-834" value="" style="endArrow=none;html=1;strokeWidth=1;" parent="1" edge="1">
          <mxGeometry width="50" height="50" relative="1" as="geometry">
            <mxPoint x="2760" y="1274" as="sourcePoint"/>
            <mxPoint x="2760" y="1114" as="targetPoint"/>
          </mxGeometry>
        </mxCell>
        <mxCell id="o6w3HR38CNkeLtD_eccx-836" value="" style="endArrow=none;html=1;strokeWidth=1;" parent="1" edge="1">
          <mxGeometry width="50" height="50" relative="1" as="geometry">
            <mxPoint x="2750" y="1205" as="sourcePoint"/>
            <mxPoint x="2761" y="1205" as="targetPoint"/>
          </mxGeometry>
        </mxCell>
        <mxCell id="o6w3HR38CNkeLtD_eccx-837" value="" style="endArrow=none;html=1;strokeWidth=1;" parent="1" edge="1">
          <mxGeometry width="50" height="50" relative="1" as="geometry">
            <mxPoint x="2749" y="1215" as="sourcePoint"/>
            <mxPoint x="2760" y="1215" as="targetPoint"/>
          </mxGeometry>
        </mxCell>
        <mxCell id="o6w3HR38CNkeLtD_eccx-838" value="" style="endArrow=none;html=1;strokeWidth=1;" parent="1" edge="1">
          <mxGeometry width="50" height="50" relative="1" as="geometry">
            <mxPoint x="2749" y="1225" as="sourcePoint"/>
            <mxPoint x="2760" y="1225" as="targetPoint"/>
          </mxGeometry>
        </mxCell>
        <mxCell id="o6w3HR38CNkeLtD_eccx-839" value="" style="endArrow=none;html=1;strokeWidth=1;" parent="1" edge="1">
          <mxGeometry width="50" height="50" relative="1" as="geometry">
            <mxPoint x="2749" y="1235" as="sourcePoint"/>
            <mxPoint x="2760" y="1235" as="targetPoint"/>
          </mxGeometry>
        </mxCell>
        <mxCell id="o6w3HR38CNkeLtD_eccx-840" value="" style="endArrow=none;html=1;strokeWidth=1;" parent="1" edge="1">
          <mxGeometry width="50" height="50" relative="1" as="geometry">
            <mxPoint x="2749" y="1246" as="sourcePoint"/>
            <mxPoint x="2760" y="1246" as="targetPoint"/>
          </mxGeometry>
        </mxCell>
        <mxCell id="o6w3HR38CNkeLtD_eccx-841" value="" style="endArrow=none;html=1;strokeWidth=1;" parent="1" edge="1">
          <mxGeometry width="50" height="50" relative="1" as="geometry">
            <mxPoint x="2749" y="1255" as="sourcePoint"/>
            <mxPoint x="2760" y="1255" as="targetPoint"/>
          </mxGeometry>
        </mxCell>
        <mxCell id="o6w3HR38CNkeLtD_eccx-842" value="" style="endArrow=none;html=1;strokeWidth=1;" parent="1" edge="1">
          <mxGeometry width="50" height="50" relative="1" as="geometry">
            <mxPoint x="2749" y="1265" as="sourcePoint"/>
            <mxPoint x="2760" y="1265" as="targetPoint"/>
          </mxGeometry>
        </mxCell>
        <mxCell id="o6w3HR38CNkeLtD_eccx-843" value="" style="endArrow=none;html=1;strokeWidth=1;" parent="1" edge="1">
          <mxGeometry width="50" height="50" relative="1" as="geometry">
            <mxPoint x="2750" y="1197" as="sourcePoint"/>
            <mxPoint x="2761" y="1197" as="targetPoint"/>
          </mxGeometry>
        </mxCell>
        <mxCell id="o6w3HR38CNkeLtD_eccx-844" value="" style="endArrow=none;html=1;strokeWidth=1;" parent="1" edge="1">
          <mxGeometry width="50" height="50" relative="1" as="geometry">
            <mxPoint x="2750" y="1127" as="sourcePoint"/>
            <mxPoint x="2761" y="1127" as="targetPoint"/>
          </mxGeometry>
        </mxCell>
        <mxCell id="o6w3HR38CNkeLtD_eccx-845" value="" style="endArrow=none;html=1;strokeWidth=1;" parent="1" edge="1">
          <mxGeometry width="50" height="50" relative="1" as="geometry">
            <mxPoint x="2750" y="1137" as="sourcePoint"/>
            <mxPoint x="2761" y="1137" as="targetPoint"/>
          </mxGeometry>
        </mxCell>
        <mxCell id="o6w3HR38CNkeLtD_eccx-846" value="" style="endArrow=none;html=1;strokeWidth=1;" parent="1" edge="1">
          <mxGeometry width="50" height="50" relative="1" as="geometry">
            <mxPoint x="2750" y="1147" as="sourcePoint"/>
            <mxPoint x="2761" y="1147" as="targetPoint"/>
          </mxGeometry>
        </mxCell>
        <mxCell id="o6w3HR38CNkeLtD_eccx-847" value="" style="endArrow=none;html=1;strokeWidth=1;" parent="1" edge="1">
          <mxGeometry width="50" height="50" relative="1" as="geometry">
            <mxPoint x="2750" y="1157" as="sourcePoint"/>
            <mxPoint x="2761" y="1157" as="targetPoint"/>
          </mxGeometry>
        </mxCell>
        <mxCell id="o6w3HR38CNkeLtD_eccx-848" value="" style="endArrow=none;html=1;strokeWidth=1;" parent="1" edge="1">
          <mxGeometry width="50" height="50" relative="1" as="geometry">
            <mxPoint x="2750" y="1168" as="sourcePoint"/>
            <mxPoint x="2761" y="1168" as="targetPoint"/>
          </mxGeometry>
        </mxCell>
        <mxCell id="o6w3HR38CNkeLtD_eccx-849" value="" style="endArrow=none;html=1;strokeWidth=1;" parent="1" edge="1">
          <mxGeometry width="50" height="50" relative="1" as="geometry">
            <mxPoint x="2750" y="1177" as="sourcePoint"/>
            <mxPoint x="2761" y="1177" as="targetPoint"/>
          </mxGeometry>
        </mxCell>
        <mxCell id="o6w3HR38CNkeLtD_eccx-850" value="" style="endArrow=none;html=1;strokeWidth=1;" parent="1" edge="1">
          <mxGeometry width="50" height="50" relative="1" as="geometry">
            <mxPoint x="2750" y="1187" as="sourcePoint"/>
            <mxPoint x="2761" y="1187" as="targetPoint"/>
          </mxGeometry>
        </mxCell>
        <mxCell id="o6w3HR38CNkeLtD_eccx-851" value="" style="endArrow=none;html=1;strokeWidth=1;" parent="1" edge="1">
          <mxGeometry width="50" height="50" relative="1" as="geometry">
            <mxPoint x="2750" y="1115" as="sourcePoint"/>
            <mxPoint x="2761" y="1115" as="targetPoint"/>
          </mxGeometry>
        </mxCell>
        <mxCell id="o6w3HR38CNkeLtD_eccx-855" value="&lt;font style=&quot;font-size: 8px&quot;&gt;100&lt;/font&gt;" style="text;html=1;align=center;verticalAlign=middle;whiteSpace=wrap;rounded=0;fontSize=8;" parent="1" vertex="1">
          <mxGeometry x="2729" y="1104.5" width="20" height="20" as="geometry"/>
        </mxCell>
        <mxCell id="o6w3HR38CNkeLtD_eccx-856" value="&lt;font style=&quot;font-size: 8px&quot;&gt;50&lt;/font&gt;" style="text;html=1;align=center;verticalAlign=middle;whiteSpace=wrap;rounded=0;fontSize=8;" parent="1" vertex="1">
          <mxGeometry x="2729" y="1184.5" width="20" height="20" as="geometry"/>
        </mxCell>
        <mxCell id="o6w3HR38CNkeLtD_eccx-857" value="" style="endArrow=none;html=1;strokeWidth=1;" parent="1" edge="1">
          <mxGeometry width="50" height="50" relative="1" as="geometry">
            <mxPoint x="2759" y="1274" as="sourcePoint"/>
            <mxPoint x="3000" y="1274.5" as="targetPoint"/>
          </mxGeometry>
        </mxCell>
        <mxCell id="o6w3HR38CNkeLtD_eccx-858" value="" style="endArrow=none;html=1;strokeWidth=1;entryX=1.125;entryY=0.214;entryDx=0;entryDy=0;entryPerimeter=0;strokeColor=#990000;" parent="1" edge="1">
          <mxGeometry width="50" height="50" relative="1" as="geometry">
            <mxPoint x="2759" y="1191" as="sourcePoint"/>
            <mxPoint x="3000.5" y="1169.616" as="targetPoint"/>
            <Array as="points">
              <mxPoint x="2789" y="1191"/>
              <mxPoint x="2809" y="1171"/>
              <mxPoint x="2839" y="1139"/>
              <mxPoint x="2879" y="1191"/>
              <mxPoint x="2949" y="1129"/>
            </Array>
          </mxGeometry>
        </mxCell>
        <mxCell id="o6w3HR38CNkeLtD_eccx-903" value="" style="endArrow=none;html=1;strokeWidth=1;entryX=1.125;entryY=0.214;entryDx=0;entryDy=0;entryPerimeter=0;strokeColor=#FFB570;" parent="1" edge="1">
          <mxGeometry width="50" height="50" relative="1" as="geometry">
            <mxPoint x="3109" y="1185.5" as="sourcePoint"/>
            <mxPoint x="3350.5" y="1164.116" as="targetPoint"/>
            <Array as="points">
              <mxPoint x="3139" y="1185.5"/>
              <mxPoint x="3159" y="1165.5"/>
              <mxPoint x="3189" y="1175.5"/>
              <mxPoint x="3219" y="1195.5"/>
              <mxPoint x="3249" y="1175.5"/>
            </Array>
          </mxGeometry>
        </mxCell>
        <mxCell id="o6w3HR38CNkeLtD_eccx-904" value="" style="endArrow=none;html=1;strokeWidth=1;" parent="1" edge="1">
          <mxGeometry width="50" height="50" relative="1" as="geometry">
            <mxPoint x="3110" y="1273" as="sourcePoint"/>
            <mxPoint x="3110" y="1113" as="targetPoint"/>
          </mxGeometry>
        </mxCell>
        <mxCell id="o6w3HR38CNkeLtD_eccx-905" value="" style="endArrow=none;html=1;strokeWidth=1;" parent="1" edge="1">
          <mxGeometry width="50" height="50" relative="1" as="geometry">
            <mxPoint x="3100" y="1204" as="sourcePoint"/>
            <mxPoint x="3111" y="1204" as="targetPoint"/>
          </mxGeometry>
        </mxCell>
        <mxCell id="o6w3HR38CNkeLtD_eccx-906" value="" style="endArrow=none;html=1;strokeWidth=1;" parent="1" edge="1">
          <mxGeometry width="50" height="50" relative="1" as="geometry">
            <mxPoint x="3099" y="1214" as="sourcePoint"/>
            <mxPoint x="3110" y="1214" as="targetPoint"/>
          </mxGeometry>
        </mxCell>
        <mxCell id="o6w3HR38CNkeLtD_eccx-907" value="" style="endArrow=none;html=1;strokeWidth=1;" parent="1" edge="1">
          <mxGeometry width="50" height="50" relative="1" as="geometry">
            <mxPoint x="3099" y="1224" as="sourcePoint"/>
            <mxPoint x="3110" y="1224" as="targetPoint"/>
          </mxGeometry>
        </mxCell>
        <mxCell id="o6w3HR38CNkeLtD_eccx-908" value="" style="endArrow=none;html=1;strokeWidth=1;" parent="1" edge="1">
          <mxGeometry width="50" height="50" relative="1" as="geometry">
            <mxPoint x="3099" y="1234" as="sourcePoint"/>
            <mxPoint x="3110" y="1234" as="targetPoint"/>
          </mxGeometry>
        </mxCell>
        <mxCell id="o6w3HR38CNkeLtD_eccx-909" value="" style="endArrow=none;html=1;strokeWidth=1;" parent="1" edge="1">
          <mxGeometry width="50" height="50" relative="1" as="geometry">
            <mxPoint x="3099" y="1245" as="sourcePoint"/>
            <mxPoint x="3110" y="1245" as="targetPoint"/>
          </mxGeometry>
        </mxCell>
        <mxCell id="o6w3HR38CNkeLtD_eccx-910" value="" style="endArrow=none;html=1;strokeWidth=1;" parent="1" edge="1">
          <mxGeometry width="50" height="50" relative="1" as="geometry">
            <mxPoint x="3099" y="1254" as="sourcePoint"/>
            <mxPoint x="3110" y="1254" as="targetPoint"/>
          </mxGeometry>
        </mxCell>
        <mxCell id="o6w3HR38CNkeLtD_eccx-911" value="" style="endArrow=none;html=1;strokeWidth=1;" parent="1" edge="1">
          <mxGeometry width="50" height="50" relative="1" as="geometry">
            <mxPoint x="3099" y="1264" as="sourcePoint"/>
            <mxPoint x="3110" y="1264" as="targetPoint"/>
          </mxGeometry>
        </mxCell>
        <mxCell id="o6w3HR38CNkeLtD_eccx-912" value="" style="endArrow=none;html=1;strokeWidth=1;" parent="1" edge="1">
          <mxGeometry width="50" height="50" relative="1" as="geometry">
            <mxPoint x="3100" y="1196" as="sourcePoint"/>
            <mxPoint x="3111" y="1196" as="targetPoint"/>
          </mxGeometry>
        </mxCell>
        <mxCell id="o6w3HR38CNkeLtD_eccx-913" value="" style="endArrow=none;html=1;strokeWidth=1;" parent="1" edge="1">
          <mxGeometry width="50" height="50" relative="1" as="geometry">
            <mxPoint x="3100" y="1126" as="sourcePoint"/>
            <mxPoint x="3111" y="1126" as="targetPoint"/>
          </mxGeometry>
        </mxCell>
        <mxCell id="o6w3HR38CNkeLtD_eccx-914" value="" style="endArrow=none;html=1;strokeWidth=1;" parent="1" edge="1">
          <mxGeometry width="50" height="50" relative="1" as="geometry">
            <mxPoint x="3100" y="1136" as="sourcePoint"/>
            <mxPoint x="3111" y="1136" as="targetPoint"/>
          </mxGeometry>
        </mxCell>
        <mxCell id="o6w3HR38CNkeLtD_eccx-915" value="" style="endArrow=none;html=1;strokeWidth=1;" parent="1" edge="1">
          <mxGeometry width="50" height="50" relative="1" as="geometry">
            <mxPoint x="3100" y="1146" as="sourcePoint"/>
            <mxPoint x="3111" y="1146" as="targetPoint"/>
          </mxGeometry>
        </mxCell>
        <mxCell id="o6w3HR38CNkeLtD_eccx-916" value="" style="endArrow=none;html=1;strokeWidth=1;" parent="1" edge="1">
          <mxGeometry width="50" height="50" relative="1" as="geometry">
            <mxPoint x="3100" y="1156" as="sourcePoint"/>
            <mxPoint x="3111" y="1156" as="targetPoint"/>
          </mxGeometry>
        </mxCell>
        <mxCell id="o6w3HR38CNkeLtD_eccx-917" value="" style="endArrow=none;html=1;strokeWidth=1;" parent="1" edge="1">
          <mxGeometry width="50" height="50" relative="1" as="geometry">
            <mxPoint x="3100" y="1167" as="sourcePoint"/>
            <mxPoint x="3111" y="1167" as="targetPoint"/>
          </mxGeometry>
        </mxCell>
        <mxCell id="o6w3HR38CNkeLtD_eccx-918" value="" style="endArrow=none;html=1;strokeWidth=1;" parent="1" edge="1">
          <mxGeometry width="50" height="50" relative="1" as="geometry">
            <mxPoint x="3100" y="1176" as="sourcePoint"/>
            <mxPoint x="3111" y="1176" as="targetPoint"/>
          </mxGeometry>
        </mxCell>
        <mxCell id="o6w3HR38CNkeLtD_eccx-919" value="" style="endArrow=none;html=1;strokeWidth=1;" parent="1" edge="1">
          <mxGeometry width="50" height="50" relative="1" as="geometry">
            <mxPoint x="3100" y="1186" as="sourcePoint"/>
            <mxPoint x="3111" y="1186" as="targetPoint"/>
          </mxGeometry>
        </mxCell>
        <mxCell id="o6w3HR38CNkeLtD_eccx-920" value="" style="endArrow=none;html=1;strokeWidth=1;" parent="1" edge="1">
          <mxGeometry width="50" height="50" relative="1" as="geometry">
            <mxPoint x="3100" y="1114" as="sourcePoint"/>
            <mxPoint x="3111" y="1114" as="targetPoint"/>
          </mxGeometry>
        </mxCell>
        <mxCell id="o6w3HR38CNkeLtD_eccx-921" value="&lt;font style=&quot;font-size: 8px&quot;&gt;100&lt;/font&gt;" style="text;html=1;align=center;verticalAlign=middle;whiteSpace=wrap;rounded=0;fontSize=8;" parent="1" vertex="1">
          <mxGeometry x="3079" y="1103.5" width="20" height="20" as="geometry"/>
        </mxCell>
        <mxCell id="o6w3HR38CNkeLtD_eccx-922" value="&lt;font style=&quot;font-size: 8px&quot;&gt;50&lt;/font&gt;" style="text;html=1;align=center;verticalAlign=middle;whiteSpace=wrap;rounded=0;fontSize=8;" parent="1" vertex="1">
          <mxGeometry x="3079" y="1183.5" width="20" height="20" as="geometry"/>
        </mxCell>
        <mxCell id="o6w3HR38CNkeLtD_eccx-923" value="" style="endArrow=none;html=1;strokeWidth=1;" parent="1" edge="1">
          <mxGeometry width="50" height="50" relative="1" as="geometry">
            <mxPoint x="3109" y="1273" as="sourcePoint"/>
            <mxPoint x="3350" y="1273.5" as="targetPoint"/>
          </mxGeometry>
        </mxCell>
        <mxCell id="o6w3HR38CNkeLtD_eccx-924" value="" style="endArrow=none;html=1;strokeWidth=1;entryX=1.125;entryY=0.214;entryDx=0;entryDy=0;entryPerimeter=0;strokeColor=#990000;" parent="1" edge="1">
          <mxGeometry width="50" height="50" relative="1" as="geometry">
            <mxPoint x="3109" y="1190" as="sourcePoint"/>
            <mxPoint x="3350.5" y="1168.616" as="targetPoint"/>
            <Array as="points">
              <mxPoint x="3139" y="1190"/>
              <mxPoint x="3159" y="1170"/>
              <mxPoint x="3229" y="1190"/>
              <mxPoint x="3289" y="1169"/>
            </Array>
          </mxGeometry>
        </mxCell>
        <mxCell id="o6w3HR38CNkeLtD_eccx-925" value="Memory usage" style="text;html=1;strokeColor=none;fillColor=none;align=center;verticalAlign=middle;whiteSpace=wrap;rounded=0;fontSize=8;fontColor=#000099;" parent="1" vertex="1">
          <mxGeometry x="3174" y="1042.5" width="107" height="20" as="geometry"/>
        </mxCell>
        <mxCell id="o6w3HR38CNkeLtD_eccx-926" value="CPU usage" style="text;html=1;strokeColor=none;fillColor=none;align=center;verticalAlign=middle;whiteSpace=wrap;rounded=0;fontSize=8;fontColor=#000099;" parent="1" vertex="1">
          <mxGeometry x="2839" y="1043.5" width="107" height="20" as="geometry"/>
        </mxCell>
        <mxCell id="o6w3HR38CNkeLtD_eccx-928" value="9:00" style="text;html=1;strokeColor=none;fillColor=none;align=center;verticalAlign=middle;whiteSpace=wrap;rounded=0;dashed=1;dashPattern=1 2;fontSize=10;fontColor=#000000;opacity=0;" parent="1" vertex="1">
          <mxGeometry x="2398" y="1279.5" width="40" height="20" as="geometry"/>
        </mxCell>
        <mxCell id="o6w3HR38CNkeLtD_eccx-929" value="9:30" style="text;html=1;strokeColor=none;fillColor=none;align=center;verticalAlign=middle;whiteSpace=wrap;rounded=0;dashed=1;dashPattern=1 2;fontSize=10;fontColor=#000000;opacity=0;" parent="1" vertex="1">
          <mxGeometry x="2469" y="1279.5" width="40" height="20" as="geometry"/>
        </mxCell>
        <mxCell id="o6w3HR38CNkeLtD_eccx-931" value="10:00" style="text;html=1;strokeColor=none;fillColor=none;align=center;verticalAlign=middle;whiteSpace=wrap;rounded=0;dashed=1;dashPattern=1 2;fontSize=10;fontColor=#000000;opacity=0;" parent="1" vertex="1">
          <mxGeometry x="2540" y="1279.5" width="40" height="20" as="geometry"/>
        </mxCell>
        <mxCell id="o6w3HR38CNkeLtD_eccx-932" value="10:30" style="text;html=1;strokeColor=none;fillColor=none;align=center;verticalAlign=middle;whiteSpace=wrap;rounded=0;dashed=1;dashPattern=1 2;fontSize=10;fontColor=#000000;opacity=0;" parent="1" vertex="1">
          <mxGeometry x="2611" y="1278.5" width="40" height="20" as="geometry"/>
        </mxCell>
        <mxCell id="o6w3HR38CNkeLtD_eccx-933" value="9:00" style="text;html=1;strokeColor=none;fillColor=none;align=center;verticalAlign=middle;whiteSpace=wrap;rounded=0;dashed=1;dashPattern=1 2;fontSize=10;fontColor=#000000;opacity=0;" parent="1" vertex="1">
          <mxGeometry x="2759" y="1279.5" width="40" height="20" as="geometry"/>
        </mxCell>
        <mxCell id="o6w3HR38CNkeLtD_eccx-934" value="9:30" style="text;html=1;strokeColor=none;fillColor=none;align=center;verticalAlign=middle;whiteSpace=wrap;rounded=0;dashed=1;dashPattern=1 2;fontSize=10;fontColor=#000000;opacity=0;" parent="1" vertex="1">
          <mxGeometry x="2830" y="1279.5" width="40" height="20" as="geometry"/>
        </mxCell>
        <mxCell id="o6w3HR38CNkeLtD_eccx-935" value="10:00" style="text;html=1;strokeColor=none;fillColor=none;align=center;verticalAlign=middle;whiteSpace=wrap;rounded=0;dashed=1;dashPattern=1 2;fontSize=10;fontColor=#000000;opacity=0;" parent="1" vertex="1">
          <mxGeometry x="2901" y="1279.5" width="40" height="20" as="geometry"/>
        </mxCell>
        <mxCell id="o6w3HR38CNkeLtD_eccx-936" value="10:30" style="text;html=1;strokeColor=none;fillColor=none;align=center;verticalAlign=middle;whiteSpace=wrap;rounded=0;dashed=1;dashPattern=1 2;fontSize=10;fontColor=#000000;opacity=0;" parent="1" vertex="1">
          <mxGeometry x="2972" y="1279.5" width="40" height="20" as="geometry"/>
        </mxCell>
        <mxCell id="o6w3HR38CNkeLtD_eccx-937" value="9:00" style="text;html=1;strokeColor=none;fillColor=none;align=center;verticalAlign=middle;whiteSpace=wrap;rounded=0;dashed=1;dashPattern=1 2;fontSize=10;fontColor=#000000;opacity=0;" parent="1" vertex="1">
          <mxGeometry x="3100" y="1279.5" width="40" height="20" as="geometry"/>
        </mxCell>
        <mxCell id="o6w3HR38CNkeLtD_eccx-938" value="9:30" style="text;html=1;strokeColor=none;fillColor=none;align=center;verticalAlign=middle;whiteSpace=wrap;rounded=0;dashed=1;dashPattern=1 2;fontSize=10;fontColor=#000000;opacity=0;" parent="1" vertex="1">
          <mxGeometry x="3171" y="1279.5" width="40" height="20" as="geometry"/>
        </mxCell>
        <mxCell id="o6w3HR38CNkeLtD_eccx-939" value="10:00" style="text;html=1;strokeColor=none;fillColor=none;align=center;verticalAlign=middle;whiteSpace=wrap;rounded=0;dashed=1;dashPattern=1 2;fontSize=10;fontColor=#000000;opacity=0;" parent="1" vertex="1">
          <mxGeometry x="3242" y="1279.5" width="40" height="20" as="geometry"/>
        </mxCell>
        <mxCell id="o6w3HR38CNkeLtD_eccx-940" value="10:30" style="text;html=1;strokeColor=none;fillColor=none;align=center;verticalAlign=middle;whiteSpace=wrap;rounded=0;dashed=1;dashPattern=1 2;fontSize=10;fontColor=#000000;opacity=0;" parent="1" vertex="1">
          <mxGeometry x="3313" y="1279.5" width="40" height="20" as="geometry"/>
        </mxCell>
        <mxCell id="o6w3HR38CNkeLtD_eccx-944" value="&lt;h1&gt;API Gateway&lt;/h1&gt;&lt;p&gt;Lorem ipsum dolor sit amet, consectetur adipisicing elit, sed do eiusmod tempor incididunt ut labore et dolore magna aliqua.&lt;/p&gt;" style="text;html=1;strokeColor=none;fillColor=none;spacing=5;spacingTop=-20;whiteSpace=wrap;overflow=hidden;rounded=0;shadow=0;dashed=1;dashPattern=1 2;comic=0;labelBackgroundColor=none;fontSize=10;opacity=0;" parent="1" vertex="1">
          <mxGeometry x="2388" y="960" width="432" height="80" as="geometry"/>
        </mxCell>
        <mxCell id="Wl3PlyjCfCqaFqwn1Miz-749" value="" style="whiteSpace=wrap;fillColor=#a20025;gradientDirection=east;strokeColor=#6F0000;html=1;fontColor=#ffffff;" vertex="1" parent="1">
          <mxGeometry x="2749" y="1311.5" width="12" height="6" as="geometry"/>
        </mxCell>
        <mxCell id="Wl3PlyjCfCqaFqwn1Miz-750" value="Gateway VM1 CPU usage" style="text;spacingTop=-5;html=1;points=[];fontSize=10;" vertex="1" parent="1">
          <mxGeometry x="2761" y="1304.5" width="80" height="20" as="geometry"/>
        </mxCell>
        <mxCell id="Wl3PlyjCfCqaFqwn1Miz-751" value="" style="whiteSpace=wrap;fillColor=#FFB570;gradientColor=none;gradientDirection=east;strokeColor=none;html=1;fontColor=#23445d;" vertex="1" parent="1">
          <mxGeometry x="2749" y="1328" width="12" height="6" as="geometry"/>
        </mxCell>
        <mxCell id="Wl3PlyjCfCqaFqwn1Miz-752" value="Gateway VM2 CPU usage" style="text;spacingTop=-5;html=1;points=[];fontSize=10;" vertex="1" parent="1">
          <mxGeometry x="2761" y="1321" width="80" height="20" as="geometry"/>
        </mxCell>
        <mxCell id="Wl3PlyjCfCqaFqwn1Miz-757" value="" style="whiteSpace=wrap;fillColor=#a20025;gradientDirection=east;strokeColor=#6F0000;html=1;fontColor=#ffffff;" vertex="1" parent="1">
          <mxGeometry x="3100" y="1313.5" width="12" height="6" as="geometry"/>
        </mxCell>
        <mxCell id="Wl3PlyjCfCqaFqwn1Miz-758" value="Gateway VM1 memory usage" style="text;spacingTop=-5;html=1;points=[];fontSize=10;" vertex="1" parent="1">
          <mxGeometry x="3112" y="1306.5" width="80" height="20" as="geometry"/>
        </mxCell>
        <mxCell id="Wl3PlyjCfCqaFqwn1Miz-759" value="" style="whiteSpace=wrap;fillColor=#FFB570;gradientColor=none;gradientDirection=east;strokeColor=none;html=1;fontColor=#23445d;" vertex="1" parent="1">
          <mxGeometry x="3100" y="1330" width="12" height="6" as="geometry"/>
        </mxCell>
        <mxCell id="Wl3PlyjCfCqaFqwn1Miz-760" value="Gateway VM2 memory usage" style="text;spacingTop=-5;html=1;points=[];fontSize=10;" vertex="1" parent="1">
          <mxGeometry x="3112" y="1323" width="80" height="20" as="geometry"/>
        </mxCell>
      </root>
    </mxGraphModel>
  </diagram>
</mxfile>
